<svg xmlns="http://www.w3.org/2000/svg" viewBox="0 0 800 600" font-family="Georgia, serif">
  <!-- background: cream paper -->
  <rect width="800" height="600" fill="#f4ead5"/>

  <!-- subtle paper texture lines -->
  <g stroke="#d4c8a8" stroke-width="0.5" opacity="0.4">
    <line x1="0" y1="100" x2="800" y2="100"/>
    <line x1="0" y1="200" x2="800" y2="200"/>
    <line x1="0" y1="300" x2="800" y2="300"/>
    <line x1="0" y1="400" x2="800" y2="400"/>
    <line x1="0" y1="500" x2="800" y2="500"/>
  </g>

  <!-- title -->
  <text x="400" y="40" text-anchor="middle" font-size="22" fill="#3a2820" font-style="italic">Camp Pinecrest</text>
  <text x="400" y="60" text-anchor="middle" font-size="12" fill="#6a5848">Whitecourt, Alberta · est. 1962</text>

  <!-- lake (top right) -->
  <ellipse cx="600" cy="180" rx="160" ry="90" fill="#a8c8d8" stroke="#4a6a7a" stroke-width="2"/>
  <text x="600" y="180" text-anchor="middle" font-size="16" fill="#2a4a5a" font-style="italic">Lake Pinecrest</text>

  <!-- lake squiggles -->
  <g stroke="#4a6a7a" stroke-width="1" fill="none" opacity="0.5">
    <path d="M 510 170 Q 520 165 530 170"/>
    <path d="M 560 200 Q 570 195 580 200"/>
    <path d="M 620 160 Q 630 155 640 160"/>
    <path d="M 660 200 Q 670 195 680 200"/>
  </g>

  <!-- boathouse -->
  <rect x="470" y="240" width="40" height="30" fill="#8b6a4a" stroke="#3a2820" stroke-width="1.5"/>
  <text x="490" y="290" text-anchor="middle" font-size="11" fill="#3a2820">boathouse</text>

  <!-- dock extending into lake -->
  <line x1="510" y1="255" x2="540" y2="220" stroke="#3a2820" stroke-width="2"/>

  <!-- main lodge (center) -->
  <rect x="340" y="270" width="120" height="70" fill="#c8a878" stroke="#3a2820" stroke-width="2"/>
  <polygon points="340,270 460,270 400,250" fill="#8b6a4a" stroke="#3a2820" stroke-width="1.5"/>
  <text x="400" y="310" text-anchor="middle" font-size="13" fill="#3a2820" font-weight="bold">Main Lodge</text>
  <text x="400" y="325" text-anchor="middle" font-size="10" fill="#3a2820">mess hall · office</text>

  <!-- cabins (around the lodge) -->
  <!-- pinewood (boys, far left) -->
  <rect x="100" y="280" width="60" height="40" fill="#d8b888" stroke="#3a2820" stroke-width="1.5"/>
  <polygon points="100,280 160,280 130,265" fill="#8b6a4a" stroke="#3a2820" stroke-width="1"/>
  <text x="130" y="305" text-anchor="middle" font-size="11" fill="#3a2820">Pinewood</text>
  <text x="130" y="335" text-anchor="middle" font-size="9" fill="#6a5848" font-style="italic">boys</text>

  <!-- hemlock (lower left) -->
  <rect x="180" y="380" width="60" height="40" fill="#d8b888" stroke="#3a2820" stroke-width="1.5"/>
  <polygon points="180,380 240,380 210,365" fill="#8b6a4a" stroke="#3a2820" stroke-width="1"/>
  <text x="210" y="405" text-anchor="middle" font-size="11" fill="#3a2820">Hemlock</text>

  <!-- birchwood (lower center) -->
  <rect x="290" y="420" width="60" height="40" fill="#d8b888" stroke="#3a2820" stroke-width="1.5"/>
  <polygon points="290,420 350,420 320,405" fill="#8b6a4a" stroke="#3a2820" stroke-width="1"/>
  <text x="320" y="445" text-anchor="middle" font-size="11" fill="#3a2820">Birchwood</text>

  <!-- spruce (lower right) -->
  <rect x="410" y="420" width="60" height="40" fill="#d8b888" stroke="#3a2820" stroke-width="1.5"/>
  <polygon points="410,420 470,420 440,405" fill="#8b6a4a" stroke="#3a2820" stroke-width="1"/>
  <text x="440" y="445" text-anchor="middle" font-size="11" fill="#3a2820">Spruce</text>

  <!-- cedar (right) -->
  <rect x="520" y="380" width="60" height="40" fill="#d8b888" stroke="#3a2820" stroke-width="1.5"/>
  <polygon points="520,380 580,380 550,365" fill="#8b6a4a" stroke="#3a2820" stroke-width="1"/>
  <text x="550" y="405" text-anchor="middle" font-size="11" fill="#3a2820">Cedar</text>

  <!-- juniper (far right, upper) -->
  <rect x="660" y="320" width="60" height="40" fill="#d8b888" stroke="#3a2820" stroke-width="1.5"/>
  <polygon points="660,320 720,320 690,305" fill="#8b6a4a" stroke="#3a2820" stroke-width="1"/>
  <text x="690" y="345" text-anchor="middle" font-size="11" fill="#3a2820">Juniper</text>

  <!-- infirmary -->
  <rect x="500" y="100" width="50" height="35" fill="#e8d8c8" stroke="#3a2820" stroke-width="1.5"/>
  <text x="525" y="122" text-anchor="middle" font-size="10" fill="#3a2820">Infirmary</text>
  <text x="525" y="150" text-anchor="middle" font-size="9" fill="#a04848" font-style="italic">+</text>

  <!-- pavilion / fire pit (south center) -->
  <circle cx="400" cy="510" r="30" fill="#c8a878" stroke="#3a2820" stroke-width="1.5"/>
  <text x="400" y="513" text-anchor="middle" font-size="10" fill="#3a2820">Fire Pit</text>

  <!-- archery range (far south west) -->
  <rect x="80" y="460" width="60" height="30" fill="none" stroke="#3a2820" stroke-width="1.5" stroke-dasharray="3,2"/>
  <text x="110" y="480" text-anchor="middle" font-size="10" fill="#3a2820">Archery</text>

  <!-- paths (dotted lines) -->
  <g stroke="#6a5848" stroke-width="1.5" fill="none" stroke-dasharray="4,3" opacity="0.7">
    <!-- main lodge to boathouse -->
    <path d="M 460 290 Q 470 280 490 270"/>
    <!-- main lodge to fire pit -->
    <path d="M 400 340 L 400 480"/>
    <!-- main lodge to pinewood -->
    <path d="M 340 300 L 160 300"/>
    <!-- main lodge to hemlock -->
    <path d="M 350 335 L 240 390"/>
    <!-- main lodge to birchwood -->
    <path d="M 380 340 L 320 420"/>
    <!-- main lodge to spruce -->
    <path d="M 420 340 L 440 420"/>
    <!-- main lodge to cedar -->
    <path d="M 460 325 L 520 390"/>
    <!-- main lodge to juniper -->
    <path d="M 460 290 L 660 330"/>
    <!-- main lodge to infirmary -->
    <path d="M 420 270 L 510 135"/>
    <!-- archery to main path -->
    <path d="M 140 470 L 320 440"/>
  </g>

  <!-- compass rose -->
  <g transform="translate(60, 80)">
    <circle r="20" fill="none" stroke="#3a2820" stroke-width="1"/>
    <polygon points="0,-18 -4,0 0,18 4,0" fill="#3a2820"/>
    <text y="-25" text-anchor="middle" font-size="10" fill="#3a2820" font-weight="bold">N</text>
  </g>

  <!-- trees scattered (decorative) -->
  <g fill="#4a6a3a" opacity="0.5">
    <circle cx="50" cy="200" r="8"/>
    <circle cx="65" cy="220" r="6"/>
    <circle cx="730" cy="450" r="8"/>
    <circle cx="750" cy="500" r="7"/>
    <circle cx="700" cy="500" r="6"/>
    <circle cx="40" cy="400" r="7"/>
    <circle cx="60" cy="430" r="6"/>
  </g>

  <!-- "you are here" tegan-handwritten -->
  <text x="210" y="370" text-anchor="middle" font-size="11" fill="#a04848" font-family="cursive" font-style="italic">★ me ★</text>
</svg>
